<svg width="512" height="512" viewBox="0 0 512 512" fill="none" xmlns="http://www.w3.org/2000/svg">
    <defs>
        <linearGradient id="godot_gradient" x1="256" y1="60" x2="256" y2="480" gradientUnits="userSpaceOnUse">
            <stop stop-color="#478cbf"/>
            <stop offset="1" stop-color="#3a729e"/>
        </linearGradient>
        <filter id="drop_shadow" x="-20" y="-20" width="552" height="552" filterUnits="userSpaceOnUse">
            <feDropShadow dx="0" dy="8" stdDeviation="6" flood-color="#000000" flood-opacity="0.25"/>
        </filter>
    </defs>

    <path d="M176 80C176 35.8172 211.817 0 256 0C300.183 0 336 35.8172 336 80V100H176V80Z" fill="#2C3E50"/>
    
    <rect x="46" y="60" width="420" height="420" rx="60" fill="url(#godot_gradient)" stroke="#242e38" stroke-width="8" filter="url(#drop_shadow)"/>

    <path d="M46 160H466" stroke="#325d7f" stroke-width="6" stroke-dasharray="20 10"/>

    <rect x="106" y="160" width="300" height="300" rx="20" fill="#212121" fill-opacity="0.3"/>

    <g id="grid_slots">
        <rect x="126" y="180" width="80" height="80" rx="12" fill="#363d4a" stroke="#6eb3e3" stroke-width="4"/>
        <rect x="216" y="180" width="80" height="80" rx="12" fill="#363d4a" stroke="#6eb3e3" stroke-width="4"/>
        <rect x="306" y="180" width="80" height="80" rx="12" fill="#363d4a" stroke="#6eb3e3" stroke-width="4"/>
        
        <rect x="126" y="270" width="80" height="80" rx="12" fill="#363d4a" stroke="#6eb3e3" stroke-width="4"/>
        <rect x="216" y="270" width="80" height="80" rx="12" fill="#363d4a" stroke="#6eb3e3" stroke-width="4"/>
        <rect x="306" y="270" width="80" height="80" rx="12" fill="#363d4a" stroke="#6eb3e3" stroke-width="4"/>

        <rect x="126" y="360" width="80" height="80" rx="12" fill="#363d4a" stroke="#6eb3e3" stroke-width="4"/>
        <rect x="216" y="360" width="80" height="80" rx="12" fill="#363d4a" stroke="#6eb3e3" stroke-width="4"/>
        <rect x="306" y="360" width="80" height="80" rx="12" fill="#363d4a" stroke="#6eb3e3" stroke-width="4"/>
    </g>

    <circle cx="150" cy="110" r="12" fill="white" fill-opacity="0.8"/>
    <circle cx="362" cy="110" r="12" fill="white" fill-opacity="0.8"/>
</svg>